<?xml version="1.0" encoding="UTF-8"?>
<svg id="Layer_2" data-name="Layer 2" xmlns="http://www.w3.org/2000/svg" viewBox="0 0 578.01 579">
  <defs>
    <style>
      .cls-1 {
        fill: #f28705;
      }

      .cls-2 {
        fill: #f2cb05;
      }

      .cls-3 {
        fill: #2f2e41;
      }

      .cls-4 {
        fill: #bf916b;
      }

      .cls-5 {
        fill: #421a0d;
      }

      .cls-6 {
        fill: #494949;
      }

      .cls-7 {
        fill: #424242;
      }

      .cls-8 {
        fill: #4c4c4c;
      }

      .cls-9 {
        fill: #3f3d56;
      }

      .cls-10 {
        fill: #f2f2f2;
      }

      .cls-11 {
        fill: #f23e2e;
      }

      .cls-12 {
        fill: #333;
      }

      .cls-13 {
        isolation: isolate;
        opacity: .2;
      }

      .cls-14 {
        fill: #ccc;
      }

      .cls-15 {
        fill: #e6e6e6;
      }
    </style>
  </defs>
  <g id="Layer_3" data-name="Layer 3">
    <g>
      <path class="cls-2" d="M578.01,289c.1,68.22-24.03,134.26-68.09,186.34-1.6,1.9-3.23,3.77-4.89,5.63-19.53,21.97-42.29,40.85-67.49,55.99-5.78,3.47-11.69,6.74-17.72,9.81-.61.31-1.23.62-1.84.92-.73.37-1.47.73-2.21,1.09-15.27,7.47-31.17,13.57-47.52,18.22-1.7.48-3.4.95-5.11,1.4-21.51,5.69-43.6,8.88-65.84,9.49-1.16.03-2.3.05-3.4.07-.39.01-.77.02-1.15.02-1.25.01-2.49.02-3.74.02-23.44.02-46.79-2.81-69.54-8.43-2.28-.56-4.55-1.15-6.81-1.77-11.9-3.25-23.59-7.27-34.97-12.03-6-2.5-11.89-5.2-17.68-8.09-1.31-.66-2.62-1.32-3.91-2-.55-.27-1.09-.56-1.63-.84-30.84-16.28-58.5-37.98-81.65-64.06-1.6-1.79-3.17-3.61-4.72-5.44C-34.81,353.32-19.33,170.98,102.69,68.06c4.87-4.11,9.87-8.05,15-11.82,1.64-1.21,3.29-2.41,4.96-3.58.33-.23.66-.46.99-.69,29.34-20.55,62.28-35.43,97.1-43.85,1.98-.49,3.96-.95,5.96-1.38,37.72-8.25,76.7-8.93,114.68-2.01,1.99.37,3.98.75,5.96,1.16,34.51,7.08,67.42,20.44,97.1,39.43.66.42,1.32.84,1.98,1.28,1.33.86,2.66,1.74,3.97,2.63,79.83,53.67,127.68,143.58,127.62,239.77Z"/>
      <path class="cls-14" d="M216.19,438.51l-92.37,8.2-.99.09V52.66c.33-.23.66-.46.99-.69,19.25-13.47,40.08-24.53,62.01-32.94l4.72,65.1.43,5.96,4.67,64.56,1.44,19.86,18.93,261.7.17,2.3h0Z"/>
      <path class="cls-14" d="M444.85,45.32c.66.42,1.32.84,1.98,1.28v400.2l-1.98-.18-91.37-8.11.17-2.3,18.93-261.7,1.44-19.86,4.67-64.56.43-5.96,4.95-68.27c21.35,7.4,41.75,17.29,60.78,29.46h0Z"/>
      <path class="cls-14" d="M444.83,47.57v405.21c0,7.78-5.43,14.1-12.1,14.1H135.93c-5.53,0-10.22-4.34-11.64-10.27-.31-1.25-.46-2.54-.46-3.83V54.19c-.33.23-.67.46-1,.69-1.68,1.17-3.35,2.36-5,3.56v394.33c-.09,5.9,2.15,11.62,6.23,15.93,2.15,2.22,4.85,3.82,7.85,4.64,1.31.35,2.66.53,4.02.53h296.8c1.36,0,2.72-.18,4.03-.53,8.05-2.14,14.07-10.54,14.07-20.57V51.47c-1.32-.89-2.66-1.76-4-2.62-.67-.44-1.33-.86-2-1.27Z"/>
      <rect class="cls-14" x="121.33" y="82.92" width="327" height="6"/>
      <path class="cls-14" d="M220.83,8.45c1.99-.49,3.99-.95,6-1.38v161.81h-6V8.45Z"/>
      <path class="cls-14" d="M341.83,5.06c2,.37,4.01.75,6,1.16v162.66h-6V5.06Z"/>
      <path class="cls-14" d="M484.66,435.88H93.85c-13.19,0-24.79,9.36-26.94,22.37-2.8,16.95,10.12,31.63,26.44,31.63h391.31c7.71,0,15.04-3.34,20.12-9.17,1.14-1.3,2.15-2.71,3.02-4.21.67-1.15,1.26-2.35,1.75-3.58,5.52-13.83-1.15-29.54-14.89-35.09-3.18-1.29-6.58-1.94-10-1.94h0Z"/>
      <rect class="cls-14" x="123.31" y="153.86" width="325" height="20"/>
      <path class="cls-14" d="M282.02,148.88h6c6.07,0,11,4.93,11,11h-28.01c0-6.07,4.93-11,11-11h.01Z"/>
      <path class="cls-10" d="M510.3,474.88c-8.71,10.31-18.11,20-28.17,29H95.88c-10.06-9-19.46-18.69-28.17-29h442.58Z"/>
      <path class="cls-3" d="M321.35,374.88h-65.06c-.35,0-.7.05-1.03.16-1.45.45-2.44,1.79-2.44,3.3v102.54h72v-102.54c0-1.91-1.55-3.46-3.48-3.46h0ZM296.83,425.55c0,1.62-.54,3.21-1.53,4.5-2.49,3.31-7.2,3.96-10.5,1.46-1.87-1.41-2.97-3.62-2.97-5.96v-11.64c.04-4.15,3.42-7.47,7.57-7.43,4.09.04,7.39,3.34,7.43,7.43v11.64Z"/>
      <path class="cls-9" d="M252.83,477.88v10.03c0,1.09.86,1.96,1.92,1.97h68.15c1.07,0,1.93-.86,1.93-1.93v-10.07h-72,0Z"/>
      <path class="cls-8" d="M428.81,214.88H150.84c-4.97,0-9.01,4.03-9.02,8.98v187.02c0,4.97,4.03,9,9,9h278c4.97,0,9-4.03,9-9v-187.02c-.01-4.95-4.05-8.97-9.02-8.98h0Z"/>
      <path class="cls-1" d="M426.03,221.88H153.65c-2.66,0-4.82,2.16-4.82,4.82v182.37c0,2.65,2.16,4.81,4.81,4.81h272.38c2.65,0,4.81-2.16,4.81-4.81v-182.38c0-2.66-2.15-4.8-4.8-4.81h0Z"/>
      <path class="cls-3" d="M376.53,489.27l-2.53-12.01c-.21-.99-.91-1.82-1.87-2.18-.34-.13-.7-.2-1.06-.2h-157.84c-.36,0-.72.07-1.06.2-.95.36-1.66,1.18-1.87,2.18l-2.53,12.01c-.34,1.62.7,3.21,2.32,3.55.2.04.4.06.61.06h162.88c.9,0,1.77-.4,2.33-1.11.57-.7.79-1.62.61-2.5h0Z"/>
      <rect class="cls-9" x="215.01" y="477" width="5" height="3" rx=".49" ry=".49"/>
      <rect class="cls-9" x="225.01" y="477" width="5" height="3" rx=".49" ry=".49"/>
      <rect class="cls-9" x="235.01" y="477" width="5" height="3" rx=".49" ry=".49"/>
      <rect class="cls-9" x="245.01" y="477" width="5" height="3" rx=".49" ry=".49"/>
      <rect class="cls-9" x="255.01" y="477" width="5" height="3" rx=".49" ry=".49"/>
      <rect class="cls-9" x="265.01" y="477" width="5" height="3" rx=".49" ry=".49"/>
      <rect class="cls-9" x="275.01" y="477" width="5" height="3" rx=".49" ry=".49"/>
      <rect class="cls-9" x="285.01" y="477" width="5" height="3" rx=".49" ry=".49"/>
      <rect class="cls-9" x="295.01" y="477" width="5" height="3" rx=".49" ry=".49"/>
      <rect class="cls-9" x="305.01" y="477" width="5" height="3" rx=".49" ry=".49"/>
      <rect class="cls-9" x="315.01" y="477" width="5" height="3" rx=".49" ry=".49"/>
      <rect class="cls-9" x="325.01" y="477" width="5" height="3" rx=".49" ry=".49"/>
      <rect class="cls-9" x="335.01" y="477" width="5" height="3" rx=".49" ry=".49"/>
      <rect class="cls-9" x="345.01" y="477" width="5" height="3" rx=".49" ry=".49"/>
      <rect class="cls-9" x="355.01" y="477" width="5" height="3" rx=".49" ry=".49"/>
      <rect class="cls-9" x="365.01" y="477" width="5" height="3" rx=".49" ry=".49"/>
      <rect class="cls-9" x="215.01" y="482" width="5" height="3" rx=".49" ry=".49"/>
      <rect class="cls-9" x="225.01" y="482" width="5" height="3" rx=".49" ry=".49"/>
      <rect class="cls-9" x="235.01" y="482" width="5" height="3" rx=".49" ry=".49"/>
      <rect class="cls-9" x="245.01" y="482" width="5" height="3" rx=".49" ry=".49"/>
      <rect class="cls-9" x="255.01" y="482" width="5" height="3" rx=".49" ry=".49"/>
      <rect class="cls-9" x="265.01" y="482" width="5" height="3" rx=".49" ry=".49"/>
      <rect class="cls-9" x="275.01" y="482" width="5" height="3" rx=".49" ry=".49"/>
      <rect class="cls-9" x="285.01" y="482" width="5" height="3" rx=".49" ry=".49"/>
      <rect class="cls-9" x="295.01" y="482" width="5" height="3" rx=".49" ry=".49"/>
      <rect class="cls-9" x="305.01" y="482" width="5" height="3" rx=".49" ry=".49"/>
      <rect class="cls-9" x="315.01" y="482" width="5" height="3" rx=".49" ry=".49"/>
      <rect class="cls-9" x="325.01" y="482" width="5" height="3" rx=".49" ry=".49"/>
      <rect class="cls-9" x="335.01" y="482" width="5" height="3" rx=".49" ry=".49"/>
      <rect class="cls-9" x="345.01" y="482" width="5" height="3" rx=".49" ry=".49"/>
      <rect class="cls-9" x="355.01" y="482" width="5" height="3" rx=".49" ry=".49"/>
      <rect class="cls-9" x="365.01" y="482" width="5" height="3" rx=".49" ry=".49"/>
      <rect class="cls-9" x="263.01" y="488" width="40" height="3" rx=".49" ry=".49"/>
      <path class="cls-8" d="M412.76,246.88h-255.32c-.56,0-1.01-.47-.99-1.02,0-.53.45-.97.99-.98h255.32c.56,0,1.01.47.99,1.02-.01.53-.45.97-.99.98Z"/>
      <circle class="cls-8" cx="178.6" cy="235.12" r="6"/>
      <circle class="cls-8" cx="198.6" cy="235.12" r="6"/>
      <circle class="cls-8" cx="219.6" cy="235.12" r="6"/>
      <path class="cls-8" d="M399.68,228.88h-13.21c-.55,0-.99.47-.98,1.02,0,.53.44.97.98.98h13.21c.55,0,1-.46.99-1.01,0-.54-.44-.98-.99-.99h0Z"/>
      <path class="cls-8" d="M399.68,232.88h-13.21c-.55,0-.99.47-.98,1.02,0,.53.44.97.98.98h13.21c.55,0,1-.46.99-1.01,0-.54-.44-.98-.99-.99h0Z"/>
      <path class="cls-8" d="M399.68,236.88h-13.21c-.55,0-.99.47-.98,1.02,0,.53.44.97.98.98h13.21c.55,0,1-.46.99-1.01,0-.54-.44-.98-.99-.99h0Z"/>
      <path class="cls-15" d="M174.09,269.88h5.47c1.66,0,3,1.34,3,3h0c0,1.66-1.34,3-3,3h-5.47c-1.66,0-3-1.34-3-3h0c0-1.66,1.34-3,3-3Z"/>
      <path class="cls-15" d="M234.09,269.88h5.47c1.66,0,3,1.34,3,3h0c0,1.66-1.34,3-3,3h-5.47c-1.66,0-3-1.34-3-3h0c0-1.66,1.34-3,3-3Z"/>
      <path class="cls-15" d="M251.09,269.88h5.47c1.66,0,3,1.34,3,3h0c0,1.66-1.34,3-3,3h-5.47c-1.66,0-3-1.34-3-3h0c0-1.66,1.34-3,3-3Z"/>
      <path class="cls-15" d="M189.84,269.88h33.97c1.66,0,3,1.34,3,3h0c0,1.66-1.34,3-3,3h-33.97c-1.66,0-3-1.34-3-3h0c0-1.66,1.34-3,3-3Z"/>
      <path class="cls-15" d="M269.84,269.88h33.97c1.66,0,3,1.34,3,3h0c0,1.66-1.34,3-3,3h-33.97c-1.66,0-3-1.34-3-3h0c0-1.66,1.34-3,3-3Z"/>
      <path class="cls-15" d="M190.09,282.88h5.47c1.66,0,3,1.34,3,3h0c0,1.66-1.34,3-3,3h-5.47c-1.66,0-3-1.34-3-3h0c0-1.66,1.34-3,3-3Z"/>
      <path class="cls-15" d="M250.09,282.88h5.47c1.66,0,3,1.34,3,3h0c0,1.66-1.34,3-3,3h-5.47c-1.66,0-3-1.34-3-3h0c0-1.66,1.34-3,3-3Z"/>
      <path class="cls-15" d="M267.09,282.88h5.47c1.66,0,3,1.34,3,3h0c0,1.66-1.34,3-3,3h-5.47c-1.66,0-3-1.34-3-3h0c0-1.66,1.34-3,3-3Z"/>
      <path class="cls-15" d="M205.84,282.88h33.97c1.66,0,3,1.34,3,3h0c0,1.66-1.34,3-3,3h-33.97c-1.66,0-3-1.34-3-3h0c0-1.66,1.34-3,3-3Z"/>
      <path class="cls-15" d="M285.84,282.88h33.97c1.66,0,3,1.34,3,3h0c0,1.66-1.34,3-3,3h-33.97c-1.66,0-3-1.34-3-3h0c0-1.66,1.34-3,3-3Z"/>
      <path class="cls-15" d="M206.09,295.88h5.47c1.66,0,3,1.34,3,3h0c0,1.66-1.34,3-3,3h-5.47c-1.66,0-3-1.34-3-3h0c0-1.66,1.34-3,3-3Z"/>
      <path class="cls-15" d="M266.09,295.88h5.47c1.66,0,3,1.34,3,3h0c0,1.66-1.34,3-3,3h-5.47c-1.66,0-3-1.34-3-3h0c0-1.66,1.34-3,3-3Z"/>
      <path class="cls-15" d="M283.09,295.88h5.47c1.66,0,3,1.34,3,3h0c0,1.66-1.34,3-3,3h-5.47c-1.66,0-3-1.34-3-3h0c0-1.66,1.34-3,3-3Z"/>
      <path class="cls-15" d="M221.84,295.88h33.97c1.66,0,3,1.34,3,3h0c0,1.66-1.34,3-3,3h-33.97c-1.66,0-3-1.34-3-3h0c0-1.66,1.34-3,3-3Z"/>
      <path class="cls-15" d="M301.84,295.88h33.97c1.66,0,3,1.34,3,3h0c0,1.66-1.34,3-3,3h-33.97c-1.66,0-3-1.34-3-3h0c0-1.66,1.34-3,3-3Z"/>
      <path class="cls-15" d="M222.09,308.88h5.47c1.66,0,3,1.34,3,3h0c0,1.66-1.34,3-3,3h-5.47c-1.66,0-3-1.34-3-3h0c0-1.66,1.34-3,3-3Z"/>
      <path class="cls-15" d="M282.09,308.88h5.47c1.66,0,3,1.34,3,3h0c0,1.66-1.34,3-3,3h-5.47c-1.66,0-3-1.34-3-3h0c0-1.66,1.34-3,3-3Z"/>
      <path class="cls-15" d="M299.09,308.88h5.47c1.66,0,3,1.34,3,3h0c0,1.66-1.34,3-3,3h-5.47c-1.66,0-3-1.34-3-3h0c0-1.66,1.34-3,3-3Z"/>
      <path class="cls-15" d="M237.84,308.88h33.97c1.66,0,3,1.34,3,3h0c0,1.66-1.34,3-3,3h-33.97c-1.66,0-3-1.34-3-3h0c0-1.66,1.34-3,3-3Z"/>
      <path class="cls-15" d="M234.09,360.88h5.47c1.66,0,3,1.34,3,3h0c0,1.66-1.34,3-3,3h-5.47c-1.66,0-3-1.34-3-3h0c0-1.66,1.34-3,3-3Z"/>
      <path class="cls-15" d="M251.09,360.88h5.47c1.66,0,3,1.34,3,3h0c0,1.66-1.34,3-3,3h-5.47c-1.66,0-3-1.34-3-3h0c0-1.66,1.34-3,3-3Z"/>
      <path class="cls-15" d="M269.84,360.88h33.97c1.66,0,3,1.34,3,3h0c0,1.66-1.34,3-3,3h-33.97c-1.66,0-3-1.34-3-3h0c0-1.66,1.34-3,3-3Z"/>
      <path class="cls-15" d="M174.09,360.88h5.47c1.66,0,3,1.34,3,3h0c0,1.66-1.34,3-3,3h-5.47c-1.66,0-3-1.34-3-3h0c0-1.66,1.34-3,3-3Z"/>
      <path class="cls-15" d="M189.84,360.88h33.97c1.66,0,3,1.34,3,3h0c0,1.66-1.34,3-3,3h-33.97c-1.66,0-3-1.34-3-3h0c0-1.66,1.34-3,3-3Z"/>
      <path class="cls-15" d="M190.09,347.88h5.47c1.66,0,3,1.34,3,3h0c0,1.66-1.34,3-3,3h-5.47c-1.66,0-3-1.34-3-3h0c0-1.66,1.34-3,3-3Z"/>
      <path class="cls-15" d="M250.09,347.88h5.47c1.66,0,3,1.34,3,3h0c0,1.66-1.34,3-3,3h-5.47c-1.66,0-3-1.34-3-3h0c0-1.66,1.34-3,3-3Z"/>
      <path class="cls-15" d="M267.09,347.88h5.47c1.66,0,3,1.34,3,3h0c0,1.66-1.34,3-3,3h-5.47c-1.66,0-3-1.34-3-3h0c0-1.66,1.34-3,3-3Z"/>
      <path class="cls-15" d="M205.84,347.88h33.97c1.66,0,3,1.34,3,3h0c0,1.66-1.34,3-3,3h-33.97c-1.66,0-3-1.34-3-3h0c0-1.66,1.34-3,3-3Z"/>
      <path class="cls-15" d="M206.09,334.88h5.47c1.66,0,3,1.34,3,3h0c0,1.66-1.34,3-3,3h-5.47c-1.66,0-3-1.34-3-3h0c0-1.66,1.34-3,3-3Z"/>
      <path class="cls-15" d="M266.09,334.88h5.47c1.66,0,3,1.34,3,3h0c0,1.66-1.34,3-3,3h-5.47c-1.66,0-3-1.34-3-3h0c0-1.66,1.34-3,3-3Z"/>
      <path class="cls-15" d="M283.09,334.88h5.47c1.66,0,3,1.34,3,3h0c0,1.66-1.34,3-3,3h-5.47c-1.66,0-3-1.34-3-3h0c0-1.66,1.34-3,3-3Z"/>
      <path class="cls-15" d="M221.84,334.88h33.97c1.66,0,3,1.34,3,3h0c0,1.66-1.34,3-3,3h-33.97c-1.66,0-3-1.34-3-3h0c0-1.66,1.34-3,3-3Z"/>
      <path class="cls-15" d="M222.09,321.88h5.47c1.66,0,3,1.34,3,3h0c0,1.66-1.34,3-3,3h-5.47c-1.66,0-3-1.34-3-3h0c0-1.66,1.34-3,3-3Z"/>
      <path class="cls-15" d="M282.09,321.88h5.47c1.66,0,3,1.34,3,3h0c0,1.66-1.34,3-3,3h-5.47c-1.66,0-3-1.34-3-3h0c0-1.66,1.34-3,3-3Z"/>
      <path class="cls-15" d="M299.09,321.88h5.47c1.66,0,3,1.34,3,3h0c0,1.66-1.34,3-3,3h-5.47c-1.66,0-3-1.34-3-3h0c0-1.66,1.34-3,3-3Z"/>
      <path class="cls-15" d="M237.84,321.88h33.97c1.66,0,3,1.34,3,3h0c0,1.66-1.34,3-3,3h-33.97c-1.66,0-3-1.34-3-3h0c0-1.66,1.34-3,3-3Z"/>
      <circle class="cls-4" cx="291.35" cy="288.49" r="51"/>
      <polygon class="cls-13" points="206.33 475.3 214.83 442.5 222.33 470.8 206.33 475.3"/>
      <path class="cls-7" d="M163.11,342.15c.26-3.51-2.38-6.56-5.88-6.81-.29-.02-.58-.02-.87,0-.34.01-.67.05-1.01.13l-39.76,8.98c-1.8.44-3.33,1.61-4.21,3.24-.58.02-1.16.11-1.73.25-5.2,1.18-8.47,6.35-7.29,11.56,1.18,5.2,6.35,8.47,11.56,7.29,1.42-.33,2.75-.97,3.89-1.88l13.47,37.94c1.38,2.44,4.21,3.68,6.94,3.05l25.85-5.84c2.71-.63,4.7-2.94,4.93-5.72l-5.9-52.17v-.02ZM112.83,364.07c-3.72.84-7.42-1.5-8.26-5.22-.87-3.82,1.62-7.62,5.51-8.32l.05.04c0,1.14.28,2.27.85,3.27l4.93,8.61c-.86.81-1.92,1.38-3.08,1.63h0Z"/>
      <path class="cls-12" d="M156.35,335.34c.38,5.03-8.23,10.8-19.76,13.1-10.58,2.17-20.07.66-22.74-3.3.54-.32,1.12-.55,1.73-.69l39.76-8.98c.33-.07.67-.11,1.01-.13Z"/>
      <path class="cls-4" d="M128.85,462.88l22.33-11.17-18.61-50.25-4.9-25.34c-2.01-10.39-12.06-17.18-22.45-15.17-3.26.63-6.31,2.1-8.83,4.26h0c-7.84,6.72-8.95,18.45-2.49,26.52l18.21,22.76,16.75,48.39h0Z"/>
      <polygon class="cls-4" points="282.16 368.88 320.51 369.52 318.97 315.88 281.83 315.88 282.16 368.88"/>
      <path class="cls-1" d="M141.98,378.44c-.06,0-.11,0-.16-.03l-6.5-2.24c-.26-.09-.4-.37-.31-.63.02-.07.06-.13.11-.18l4.84-5.26c.19-.2.5-.22.71-.03.2.19.22.5.03.71h0l-4.32,4.7,5.78,1.99c.26.09.4.37.31.64-.07.2-.26.34-.47.34h-.02Z"/>
      <path class="cls-1" d="M150.89,376.62c-.28,0-.5-.22-.5-.5,0-.14.05-.27.15-.36l4.39-4.25-5.9-2.43c-.26-.1-.38-.4-.27-.65.1-.26.4-.38.65-.27h0l6.61,2.72c.26.1.38.4.27.65-.03.06-.07.12-.11.17l-4.94,4.78c-.09.09-.22.14-.35.14h0Z"/>
      <path class="cls-1" d="M143.34,381.5s-.1,0-.15-.02c-.26-.08-.41-.36-.33-.62h0l4.61-15c.08-.26.36-.41.63-.33.26.08.41.36.33.62l-4.61,15c-.06.21-.26.35-.48.35h0Z"/>
      <path class="cls-5" d="M374.63,221.5c-1.01-2.34-2.36-4.52-4.01-6.49-7.79-9.41-21.97-13.55-36.51-2.41-2.8-.62-5.72-.45-8.43.48-1.28.46-2.48,1.11-3.55,1.94-2.2,1.7-3.92,3.93-4.99,6.49-.57,1.35-.94,2.77-1.11,4.22-3.59-1.85-7.4-3.26-11.34-4.22-9.65-2.37-19.76-2.37-29.41,0-3.09.78-6.08,1.95-8.86,3.47-4.72,2.69-7.44,6.1-7.92,9.88-6.81.38-13.9,3.92-19.18,9.73-.6.65-1.17,1.33-1.71,2.03-4.44,5.74-6.82,12.78-6.78,20.01v1.27h1.28c3.51,0,7,.67,10.25,1.98,2.11.84,4.11,1.93,5.95,3.24,1.2.85,2.34,1.78,3.4,2.79,2.46,2.35,4.54,5.06,6.18,8.03,4.19,7.5,5.65,16.21,4.12,24.66-.35,1.96-.87,3.88-1.53,5.75-.95,2.67-2.21,5.22-3.75,7.61-.06.09-.11.18-.17.27-.68,1.07-1.32,2.16-1.93,3.25-.45.82-.88,1.66-1.27,2.49-1.15,2.33-2.12,4.75-2.91,7.22-1.4,4.38-2.23,8.92-2.46,13.51-.07,1.22-.09,2.43-.05,3.65.06,3.13.4,6.27,1.04,9.34.09.42.18.83.27,1.25l.74,3.18,1.75,7.59,1.21,5.23,1.12,4.85,1.66-2.34c.57-.8,1.99-3.25,3.9-6.73,1.26-2.27,2.73-4.97,4.31-7.92,2.21-4.14,4.63-8.76,7.01-13.37.96-1.87,1.91-3.72,2.83-5.54,1.74-3.44,3.37-6.77,4.78-9.72,1.29-2.72,2.39-5.14,3.21-7.07.25,1.27.46,2.55.63,3.85.18,1.32.31,2.65.38,3.99.02.2.03.41.04.61l.04.82v.24l1.08.14c6.17.65,12.4.7,18.58.14h.01c8.19-.61,16.22-2.53,23.78-5.7,4.29-1.85,8.31-4.27,11.91-7.22,1.69-1.38,3.26-2.88,4.7-4.51.36-.41.72-.82,1.06-1.24,2-2.42,3.7-5.07,5.1-7.88.93-1.86,1.72-3.77,2.36-5.75,3.88-11.6,3.65-26.08-.67-43.29,1.17-.22,2.28-.65,3.3-1.26,3.17-1.89,5.37-5.63,6.06-10.2l1.09.29c3.87-1.78,7.31-4.34,10.11-7.52.56-.65,1.07-1.33,1.55-2.03,4.94-7.18,4.98-15.81,1.78-23.08h0Z"/>
      <path class="cls-11" d="M415.82,548.77c-.61.31-1.23.62-1.84.92-15.8,7.9-28.44,12.39-45.73,17.31-1.46-16.3-2.87-44.95-4.24-62.71-.36-4.61-.72-8.48-1.07-11.21-.09-1.45-1.11-4.25-1.11-4.25l1,4.25-1,11.21v64.11s-42.29,8.88-64.53,9.49c-1.16.03-2.3.05-3.4.07-.39.01-.77.02-1.15.02-1.25.01-2.49.02-3.74.02-23.44.02-46.79-2.81-69.54-8.43.49-16.13.98-44.46,1.45-65.28.1-4.07.19-7.86.29-11.21.19-7.16.39-12.32.58-14.05-.17.31-.3.63-.39.97-.93,4.31-1.56,8.68-1.89,13.08-.35,3.35-.7,7.14-1.05,11.21-1.86,21.63-3.8,51.04-5.8,63.51-11.9-3.25-23.59-7.27-34.97-12.03-6-2.5-11.89-5.2-17.68-8.09,1.1-7.2,2.25-15.27,3.43-23.64.92-6.49,1.87-13.16,2.84-19.75,1.5-10.18,3.04-20.16,4.6-28.95,2.28-12.84,4.62-23.16,6.94-27.9,2.2-4.5,4.4-8.94,6.53-13.19.74-1.49,1.48-2.96,2.2-4.39.17-.34.34-.67.51-1,1.53-3.01,3.01-5.89,4.42-8.59,1.21-2.31,2.36-4.49,3.45-6.5,2.64-4.88,4.88-8.77,6.54-11.23,6.94-10.53,17.27-18.36,29.28-22.21l.3-.08.21.09,20.45-6.28,2.99-.92,2.01-.62,7.08-5.39,3.85-2.93,3.61-2.75,7.06-5.37,43.71,2.69,8.51,20.49,19.06,6.97.33-.15.29-.12.3.08c12.01,3.85,22.34,11.69,29.28,22.21.94,1.41,2.08,3.27,3.37,5.52,1.1,1.91,2.3,4.09,3.6,6.5,1.85,3.43,3.87,7.3,6.01,11.49.47.92.95,1.86,1.43,2.81.89,1.76,1.79,3.56,2.71,5.39,2.13,4.25,4.33,8.69,6.53,13.2,1.91,3.91,3.84,11.95,5.74,22.18,1.57,8.5,3.13,18.52,4.64,28.95,1.98,13.52-.13,29.71,1.66,42.15.11.79.23,1.56.34,2.33h0Z"/>
      <path class="cls-11" d="M150.83,442.43l-29.78,14.89,22.6,70.81c3.3,10.34,11.77,18.2,22.34,20.72h0c13.14,3.13,26.79-2.62,33.74-14.2l59.92-102.71c8.83-14.72,4.31-33.8-10.2-42.98h0c-14.75-9.34-34.29-4.96-43.63,9.8-.61.96-1.16,1.95-1.66,2.97l-36.58,77.94-16.75-37.22v-.02Z"/>
      <path class="cls-6" d="M432.44,454.93c-3.04,41.88.11,60.32-16.67,94.85-15.27,7.47-31.17,13.57-47.52,18.22-1.7.48-3.4.95-5.11,1.4-21.51,5.69-43.6,8.88-65.84,9.49-1.16.03-2.3.05-3.4.07-.39.01-.77.02-1.15.02-1.25.01-2.49.02-3.74.02-23.44.02-46.79-2.81-69.54-8.43-2.28-.56-4.55-1.15-6.81-1.77-11.9-3.25-23.59-7.27-34.97-12.03-6-2.5-11.89-5.2-17.68-8.09-1.31-.66-2.62-1.32-3.91-2-6.63-11.66-10.4-25.84-10.48-42.88,4.59-29.36,276.68-74.19,286.82-48.87h0Z"/>
      <path class="cls-13" d="M432.43,461.1c.16-2.59.33-5.27.53-8.06-10.14-25.32-282.23,19.51-286.82,48.87,0,2.69.13,5.3.32,7.85,11.12-28.98,269.6-71.59,285.97-48.66Z"/>
    </g>
  </g>
</svg>