<?xml version="1.0" encoding="UTF-8"?>
<svg id="Layer_2" data-name="Layer 2" xmlns="http://www.w3.org/2000/svg" viewBox="0 0 117 117">
  <defs>
    <style>
      .cls-1 {
        fill: #f2cb05;
      }

      .cls-2 {
        fill: #f2f2f2;
      }
    </style>
  </defs>
  <g id="Färger_1" data-name="Färger 1">
    <g>
      <circle class="cls-2" cx="58.5" cy="58.5" r="58.5"/>
      <path class="cls-1" d="M58.38,101.07c-5.66,0-10.32-1.18-14-3.55-3.67-2.36-6.42-5.48-8.26-9.34-1.84-3.86-2.8-7.96-2.91-12.3,0-.71.16-1.32.5-1.83.33-.51.73-.77,1.19-.77h14.53c.82,0,1.44.18,1.87.53.43.36.9.85,1.41,1.48.51.55,1.03,1.05,1.57,1.48.54.43,1.15.75,1.84.95.69.2,1.44.3,2.26.3,1.73,0,3.12-.3,4.17-.89,1.04-.59,1.57-1.4,1.57-2.42,0-.95-.29-1.73-.88-2.37-.59-.63-1.59-1.2-3.02-1.71-1.43-.51-3.42-1.01-5.96-1.48-4.03-.87-7.52-2.32-10.48-4.37-2.96-2.05-5.24-4.87-6.85-8.45-1.61-3.59-2.41-7.98-2.41-13.18s.98-10.09,2.94-14.19c1.96-4.1,4.69-7.29,8.18-9.58,3.49-2.28,7.56-3.43,12.2-3.43,3.82,0,7.21.77,10.17,2.31,2.96,1.54,5.46,3.55,7.5,6.03,2.04,2.48,3.59,5.14,4.67,7.98s1.63,5.56,1.68,8.16c0,.71-.17,1.32-.5,1.83-.33.51-.7.77-1.11.77h-15.3c-.71,0-1.29-.16-1.72-.47-.43-.31-.88-.79-1.34-1.42-.26-.39-.73-.85-1.41-1.36-.69-.51-1.57-.77-2.64-.77-1.28,0-2.21.3-2.79.89-.59.59-.88,1.4-.88,2.42,0,.71.23,1.38.69,2.01.46.63,1.3,1.18,2.52,1.66,1.22.47,2.98.95,5.28,1.42,5.1.95,9.19,2.46,12.28,4.55,3.08,2.09,5.33,4.87,6.73,8.34,1.4,3.47,2.1,7.77,2.1,12.89,0,5.76-1.11,10.72-3.33,14.9-2.22,4.18-5.24,7.39-9.06,9.64s-8.16,3.37-13,3.37Z"/>
    </g>
  </g>
</svg>